<?xml version="1.0" encoding="utf-8"?>
<!-- Generator: Adobe Illustrator 16.0.0, SVG Export Plug-In . SVG Version: 6.00 Build 0)  -->
<!DOCTYPE svg PUBLIC "-//W3C//DTD SVG 1.1//EN" "http://www.w3.org/Graphics/SVG/1.1/DTD/svg11.dtd">
<svg version="1.1" id="Layer_1" xmlns="http://www.w3.org/2000/svg" xmlns:xlink="http://www.w3.org/1999/xlink" x="0px" y="0px"
	 width="57.355px" height="54.485px" viewBox="0 0 57.355 54.485" enable-background="new 0 0 57.355 54.485" xml:space="preserve">
<g opacity="0.5">
	<g>
		<defs>
			<path id="SVGID_1_" d="M143.76,143.761"/>
		</defs>
		<defs>
			<polyline id="SVGID_2_" points="143.76,0 0,0 0,143.761 			"/>
		</defs>
		<clipPath id="SVGID_3_">
			<use xlink:href="#SVGID_1_"  overflow="visible"/>
		</clipPath>
		<clipPath id="SVGID_4_" clip-path="url(#SVGID_3_)">
			<use xlink:href="#SVGID_2_"  overflow="visible"/>
		</clipPath>
		<g clip-path="url(#SVGID_4_)">
			<defs>
				<path id="SVGID_5_" d="M143.76,143.76"/>
			</defs>
			<defs>
				<polyline id="SVGID_6_" points="143.76,0 0,0 0,143.76 				"/>
			</defs>
			<clipPath id="SVGID_7_">
				<use xlink:href="#SVGID_5_"  overflow="visible"/>
			</clipPath>
			<clipPath id="SVGID_8_" clip-path="url(#SVGID_7_)">
				<use xlink:href="#SVGID_6_"  overflow="visible"/>
			</clipPath>
		</g>
	</g>
</g>
<path fill="#68B480" d="M41.777,22.783H13.613c-1.289,0-2.335-1.045-2.335-2.335v-4.946c0-1.29,1.046-2.335,2.335-2.335h28.164
	c1.29,0,2.335,1.045,2.335,2.335v4.946C44.112,21.738,43.067,22.783,41.777,22.783"/>
<path fill="#68B480" d="M41.777,9.617H13.613c-1.289,0-2.335-1.045-2.335-2.335V2.335c0-1.29,1.046-2.335,2.335-2.335h28.164
	c1.29,0,2.335,1.045,2.335,2.335v4.947C44.112,8.572,43.067,9.617,41.777,9.617"/>
<path fill="#68B480" d="M30.207,53.915l26.338-22.811c1.634-1.415,0.633-4.099-1.528-4.099H2.34c-2.162,0-3.162,2.684-1.529,4.099
	l26.34,22.811C28.027,54.675,29.33,54.675,30.207,53.915"/>
</svg>
